<?xml version="1.0" encoding="utf-8" standalone="no"?>
<!DOCTYPE svg PUBLIC "-//W3C//DTD SVG 1.1//EN"
  "http://www.w3.org/Graphics/SVG/1.1/DTD/svg11.dtd">
<svg xmlns:xlink="http://www.w3.org/1999/xlink" width="277.2pt" height="277.2pt" viewBox="0 0 277.2 277.2" xmlns="http://www.w3.org/2000/svg" version="1.1">
 <metadata>
  <rdf:RDF xmlns:dc="http://purl.org/dc/elements/1.1/" xmlns:cc="http://creativecommons.org/ns#" xmlns:rdf="http://www.w3.org/1999/02/22-rdf-syntax-ns#">
   <cc:Work>
    <dc:type rdf:resource="http://purl.org/dc/dcmitype/StillImage"/>
    <dc:date>2024-08-09T18:31:39.518796</dc:date>
    <dc:format>image/svg+xml</dc:format>
    <dc:creator>
     <cc:Agent>
      <dc:title>Matplotlib v3.6.3, https://matplotlib.org/</dc:title>
     </cc:Agent>
    </dc:creator>
   </cc:Work>
  </rdf:RDF>
 </metadata>
 <defs>
  <style type="text/css">*{stroke-linejoin: round; stroke-linecap: butt}</style>
 </defs>
 <g id="figure_1">
  <g id="patch_1">
   <path d="M 0 277.2 
L 277.2 277.2 
L 277.2 0 
L 0 0 
z
" style="fill: #ffffff"/>
  </g>
  <g id="axes_1">
   <g id="patch_2">
    <path d="M 110.88 249.48 
L 166.32 249.48 
L 166.32 221.76 
L 110.88 221.76 
z
" clip-path="url(#p9bff58dc42)" style="stroke: #000000; stroke-linejoin: miter"/>
   </g>
   <g id="patch_3">
    <path d="M 138.6 69.3 
C 142.275715 69.3 145.801377 67.839623 148.4005 65.2405 
C 150.999623 62.641377 152.46 59.115715 152.46 55.44 
C 152.46 51.764285 150.999623 48.238623 148.4005 45.6395 
C 145.801377 43.040377 142.275715 41.58 138.6 41.58 
C 134.924285 41.58 131.398623 43.040377 128.7995 45.6395 
C 126.200377 48.238623 124.74 51.764285 124.74 55.44 
C 124.74 59.115715 126.200377 62.641377 128.7995 65.2405 
C 131.398623 67.839623 134.924285 69.3 138.6 69.3 
z
" clip-path="url(#p9bff58dc42)" style="stroke: #000000; stroke-linejoin: miter"/>
   </g>
   <g id="line2d_1">
    <path d="M 138.6 221.76 
L 138.6 194.04 
" clip-path="url(#p9bff58dc42)" style="fill: none; stroke: #000000; stroke-width: 2; stroke-linecap: square"/>
   </g>
   <g id="line2d_2">
    <path d="M 138.6 194.04 
L 138.6 166.32 
" clip-path="url(#p9bff58dc42)" style="fill: none; stroke: #000000; stroke-width: 2; stroke-linecap: square"/>
   </g>
   <g id="line2d_3">
    <path d="M 138.6 166.32 
L 138.6 138.6 
" clip-path="url(#p9bff58dc42)" style="fill: none; stroke: #000000; stroke-width: 2; stroke-linecap: square"/>
   </g>
   <g id="line2d_4">
    <path d="M 138.6 138.6 
L 138.6 110.88 
" clip-path="url(#p9bff58dc42)" style="fill: none; stroke: #000000; stroke-width: 2; stroke-linecap: square"/>
   </g>
   <g id="line2d_5">
    <path d="M 138.6 110.88 
L 138.6 83.16 
" clip-path="url(#p9bff58dc42)" style="fill: none; stroke: #000000; stroke-width: 2; stroke-linecap: square"/>
   </g>
  </g>
 </g>
 <defs>
  <clipPath id="p9bff58dc42">
   <rect x="0" y="0" width="277.2" height="277.2"/>
  </clipPath>
 </defs>
</svg>
